<svg width="85" height="149" viewBox="0 0 85 149" fill="none" xmlns="http://www.w3.org/2000/svg">
<g filter="url(#filter0_f)">
<circle cx="10.5" cy="74.5" r="70.5" fill="#59499E" fill-opacity="0.2"/>
<path d="M53.5377 60.4714C52.5186 58.0495 50.8256 56.3033 48.6405 55.4237L48.6112 55.4127C47.6166 55.0232 46.5577 54.8239 45.4896 54.8251H45.3721C40.3703 54.9004 35.2639 59.1512 32.6675 65.4034C30.7634 69.9756 30.5449 74.8929 32.0836 78.5579C33.1008 80.9817 34.7975 82.7279 36.9917 83.6075L37.0156 83.6166C38.0102 84.0059 39.069 84.2052 40.1371 84.2042C45.1867 84.2042 50.3464 79.9534 52.9905 73.6186C54.8707 69.052 55.0782 64.1383 53.5377 60.4714Z" fill="#F3F3F3"/>
<path d="M33.5526 87.4376C30.6679 85.7043 27.9412 84.0645 26.1601 81.1193C21.2464 72.9666 18.2792 68.0456 10.4992 68.0456C2.71926 68.0456 -0.255373 72.9666 -5.18004 81.1193C-6.96482 84.0682 -9.69707 85.7098 -12.5909 87.4505C-15.9089 89.4446 -19.3371 91.5048 -20.8171 95.5591C-21.3924 97.0206 -21.6822 98.5789 -21.6709 100.15C-21.6709 106.751 -16.5295 112.122 -10.213 112.122C-6.9538 112.122 -3.48524 110.992 0.185314 109.797C3.71448 108.647 7.36299 107.459 10.5176 107.459C13.6721 107.459 17.3115 108.647 20.8278 109.797C24.491 110.985 27.943 112.114 31.2115 112.114C37.5188 112.114 42.6509 106.743 42.6509 100.142C42.6561 98.5704 42.3601 97.0121 41.7787 95.5518C40.2988 91.4938 36.8688 89.4317 33.5526 87.4376Z" fill="#F3F3F3"/>
<path d="M-8.96445 61.5915C-6.77938 64.333 -4.00673 65.8423 -1.15696 65.8423C-0.76792 65.8423 -0.379419 65.8134 0.00535297 65.756C5.94911 64.882 9.65271 57.629 8.43715 49.2303C7.92852 45.6993 6.56974 42.4107 4.62337 39.9722C2.44198 37.2363 -0.334343 35.7288 -3.18228 35.7288C-3.57131 35.7288 -3.95982 35.7576 -4.34459 35.8151C-10.2883 36.6891 -13.9919 43.942 -12.7764 52.3408C-12.2696 55.8663 -10.9108 59.1512 -8.96445 61.5915Z" fill="#F3F3F3"/>
<path d="M20.9949 65.756C21.3796 65.8135 21.7681 65.8423 22.1572 65.8423C25.0088 65.8423 27.7796 64.333 29.9647 61.5915C31.9092 59.1512 33.2606 55.8663 33.7748 52.3371C34.9903 43.9421 31.2867 36.6891 25.343 35.8114C24.9582 35.754 24.5697 35.7251 24.1807 35.7251C21.3327 35.7288 18.5564 37.2363 16.375 39.9722C14.4286 42.4107 13.0699 45.6993 12.5631 49.234C11.3475 57.629 15.0511 64.882 20.9949 65.756Z" fill="#F3F3F3"/>
</g>
<defs>
<filter id="filter0_f" x="-64" y="0" width="149" height="149" filterUnits="userSpaceOnUse" color-interpolation-filters="sRGB">
<feFlood flood-opacity="0" result="BackgroundImageFix"/>
<feBlend mode="normal" in="SourceGraphic" in2="BackgroundImageFix" result="shape"/>
<feGaussianBlur stdDeviation="2" result="effect1_foregroundBlur"/>
</filter>
</defs>
</svg>
