<svg width="88" height="105" viewBox="0 0 88 105" fill="none" xmlns="http://www.w3.org/2000/svg">
<g filter="url(#filter0_f)">
<circle cx="13.5" cy="74.5" r="70.5" fill="#59499E" fill-opacity="0.2"/>
<path d="M56.5377 60.4714C55.5186 58.0494 53.8256 56.3032 51.6405 55.4237L51.6112 55.4127C50.6166 55.0231 49.5577 54.8238 48.4896 54.8251H48.3721C43.3703 54.9004 38.2639 59.1511 35.6675 65.4034C33.7634 69.9755 33.5449 74.8928 35.0836 78.5579C36.1008 80.9816 37.7975 82.7279 39.9917 83.6074L40.0156 83.6166C41.0102 84.0058 42.069 84.2051 43.1371 84.2042C48.1867 84.2042 53.3464 79.9534 55.9905 73.6185C57.8707 69.0519 58.0782 64.1382 56.5377 60.4714Z" fill="#F3F3F3"/>
<path d="M36.5526 87.4376C33.6679 85.7042 30.9412 84.0645 29.1601 81.1192C24.2464 72.9665 21.2792 68.0455 13.4992 68.0455C5.71926 68.0455 2.74463 72.9665 -2.18004 81.1192C-3.96482 84.0681 -6.69707 85.7097 -9.59091 87.4504C-12.9089 89.4445 -16.3371 91.5047 -17.8171 95.559C-18.3924 97.0206 -18.6822 98.5789 -18.6709 100.15C-18.6709 106.751 -13.5295 112.121 -7.21304 112.121C-3.9538 112.121 -0.485235 110.992 3.18531 109.797C6.71448 108.647 10.363 107.459 13.5176 107.459C16.6721 107.459 20.3115 108.647 23.8278 109.797C27.491 110.985 30.943 112.114 34.2115 112.114C40.5188 112.114 45.6509 106.743 45.6509 100.142C45.6561 98.5703 45.3601 97.0121 44.7787 95.5517C43.2988 91.4937 39.8688 89.4317 36.5526 87.4376Z" fill="#F3F3F3"/>
<path d="M-5.96448 61.5914C-3.77941 64.3328 -1.00676 65.8422 1.84301 65.8422C2.23205 65.8422 2.62055 65.8133 3.00532 65.7559C8.94908 64.8819 12.6527 57.6289 11.4371 49.2302C10.9285 45.6992 9.56971 42.4105 7.62334 39.9721C5.44195 37.2362 2.66563 35.7286 -0.182308 35.7286C-0.571344 35.7287 -0.959846 35.7575 -1.34462 35.8149C-7.28837 36.689 -10.992 43.9419 -9.77641 52.3407C-9.26962 55.8662 -7.91084 59.1511 -5.96448 61.5914Z" fill="#F3F3F3"/>
<path d="M23.9949 65.7559C24.3796 65.8133 24.7681 65.8422 25.1572 65.8422C28.0088 65.8422 30.7796 64.3329 32.9647 61.5914C34.9092 59.1511 36.2606 55.8662 36.7748 52.337C37.9903 43.9419 34.2867 36.689 28.343 35.8113C27.9582 35.7538 27.5697 35.725 27.1807 35.725C24.3327 35.7286 21.5564 37.2362 19.375 39.9721C17.4286 42.4106 16.0699 45.6992 15.5631 49.2338C14.3475 57.6289 18.0511 64.8819 23.9949 65.7559Z" fill="#F3F3F3"/>
</g>
<defs>
<filter id="filter0_f" x="-61" y="0" width="149" height="149" filterUnits="userSpaceOnUse" color-interpolation-filters="sRGB">
<feFlood flood-opacity="0" result="BackgroundImageFix"/>
<feBlend mode="normal" in="SourceGraphic" in2="BackgroundImageFix" result="shape"/>
<feGaussianBlur stdDeviation="2" result="effect1_foregroundBlur"/>
</filter>
</defs>
</svg>
