<svg width="73" height="73" viewBox="0 0 73 73" fill="none" xmlns="http://www.w3.org/2000/svg">
<circle cx="36.5" cy="36.5" r="36.5" fill="#59499E" fill-opacity="0.1"/>
<circle cx="36.1034" cy="36.8968" r="24.2011" fill="#59499E"/>
<circle cx="36.1031" cy="36.8967" r="30.5489" fill="#59499E" fill-opacity="0.2"/>
<path d="M50.8773 32.0811C50.5274 31.2497 49.9463 30.6502 49.1962 30.3483L49.1861 30.3445C48.8447 30.2108 48.4812 30.1424 48.1146 30.1428H48.0742C46.3572 30.1687 44.6043 31.6279 43.713 33.7741C43.0594 35.3436 42.9844 37.0316 43.5126 38.2898C43.8618 39.1218 44.4442 39.7212 45.1974 40.0232L45.2056 40.0263C45.547 40.1599 45.9105 40.2283 46.2772 40.228C48.0106 40.228 49.7818 38.7688 50.6894 36.5942C51.3349 35.0266 51.4061 33.3398 50.8773 32.0811Z" fill="#F3F3F3"/>
<path d="M44.0167 41.3379C43.0264 40.7429 42.0904 40.18 41.479 39.1689C39.7922 36.3703 38.7736 34.681 36.103 34.681C33.4323 34.681 32.4111 36.3703 30.7206 39.1689C30.1079 40.1812 29.17 40.7447 28.1766 41.3423C27.0376 42.0268 25.8608 42.734 25.3528 44.1258C25.1553 44.6275 25.0558 45.1624 25.0597 45.7016C25.0597 47.9676 26.8246 49.8113 28.9929 49.8113C30.1117 49.8113 31.3024 49.4237 32.5624 49.0133C33.7739 48.6188 35.0264 48.2109 36.1093 48.2109C37.1922 48.2109 38.4415 48.6188 39.6485 49.0133C40.906 49.4212 42.091 49.8088 43.213 49.8088C45.3782 49.8088 47.1399 47.9651 47.1399 45.6991C47.1417 45.1595 47.0401 44.6246 46.8405 44.1233C46.3325 42.7303 45.155 42.0224 44.0167 41.3379Z" fill="#F3F3F3"/>
<path d="M29.4214 32.4655C30.1715 33.4066 31.1233 33.9247 32.1015 33.9247C32.2351 33.9247 32.3685 33.9148 32.5005 33.8951C34.5409 33.5951 35.8123 31.1053 35.395 28.2222C35.2204 27.0101 34.7539 25.8812 34.0858 25.0441C33.337 24.1049 32.3839 23.5874 31.4063 23.5874C31.2727 23.5874 31.1394 23.5973 31.0073 23.617C28.9669 23.9171 27.6956 26.4068 28.1129 29.2899C28.2868 30.5002 28.7533 31.6278 29.4214 32.4655Z" fill="#F3F3F3"/>
<path d="M39.706 33.8951C39.8381 33.9149 39.9715 33.9248 40.105 33.9248C41.0839 33.9248 42.0351 33.4066 42.7852 32.4656C43.4527 31.6279 43.9166 30.5002 44.0931 29.2887C44.5104 26.4069 43.239 23.9171 41.1986 23.6158C41.0666 23.5961 40.9332 23.5862 40.7996 23.5862C39.822 23.5874 38.869 24.1049 38.1201 25.0441C37.452 25.8812 36.9856 27.0101 36.8116 28.2235C36.3943 31.1053 37.6657 33.5951 39.706 33.8951Z" fill="#F3F3F3"/>
<path d="M27.0004 40.0263L27.0093 40.0232C27.7612 39.7212 28.343 39.1224 28.6916 38.291C29.2198 37.0304 29.1454 35.3443 28.4931 33.7748C27.5898 31.6027 25.8192 30.1428 24.0877 30.1428C23.721 30.1423 23.3575 30.2107 23.0162 30.3445L23.0073 30.3477C22.2573 30.6471 21.6755 31.2484 21.3269 32.0798C20.7987 33.3405 20.8731 35.0266 21.5254 36.5961C22.4287 38.7682 24.1993 40.228 25.9308 40.228C26.2968 40.2283 26.6597 40.1599 27.0004 40.0263Z" fill="#F3F3F3"/>
</svg>
