<svg width="66" height="141" viewBox="0 0 66 141" fill="none" xmlns="http://www.w3.org/2000/svg">
<g filter="url(#filter0_f)">
<circle cx="70.5" cy="70.5" r="66.5" fill="#59499E" fill-opacity="0.2"/>
<path d="M92.2448 82.7036C89.5238 81.0686 86.9518 79.5219 85.2718 76.7438C80.6369 69.0537 77.838 64.4119 70.4994 64.4119C63.1609 64.4119 60.355 69.0537 55.7098 76.7438C54.0263 79.5254 51.449 81.0738 48.7194 82.7158C45.5897 84.5967 42.356 86.54 40.96 90.3643C40.4173 91.7429 40.1439 93.2128 40.1546 94.6943C40.1546 100.921 45.0042 105.987 50.9623 105.987C54.0367 105.987 57.3084 104.922 60.7707 103.794C64.0997 102.71 67.5412 101.589 70.5168 101.589C73.4924 101.589 76.9252 102.71 80.242 103.794C83.6974 104.915 86.9535 105.98 90.0365 105.98C95.986 105.98 100.827 100.914 100.827 94.6874C100.832 93.2048 100.553 91.7349 100.004 90.3574C98.6082 86.5296 95.3728 84.5846 92.2448 82.7036Z" fill="#F3F3F3"/>
<path d="M52.1403 58.3238C54.2014 60.9097 56.8168 62.3334 59.5048 62.3334C59.8718 62.3334 60.2383 62.3062 60.6012 62.252C66.2077 61.4276 69.7012 54.5862 68.5546 46.6639C68.0748 43.3333 66.7931 40.2313 64.9572 37.9311C62.8996 35.3504 60.2808 33.9285 57.5944 33.9285C57.2275 33.9285 56.861 33.9557 56.4981 34.0099C50.8915 34.8343 47.3981 41.6758 48.5447 49.598C49.0227 52.9234 50.3044 56.022 52.1403 58.3238Z" fill="#F3F3F3"/>
<path d="M45.4873 79.0993L45.5116 79.0907C47.5778 78.2611 49.1765 76.6156 50.1343 74.3311C51.5857 70.8671 51.3813 66.234 49.5887 61.9213C47.1067 55.9528 42.2415 51.9414 37.4837 51.9414C36.4761 51.94 35.4773 52.128 34.5393 52.4957L34.515 52.5043C32.4539 53.327 30.8553 54.9794 29.8975 57.2639C28.446 60.7279 28.6504 65.361 30.4431 69.6737C32.925 75.6423 37.7902 79.6536 42.5481 79.6536C43.5539 79.6544 44.5509 79.4664 45.4873 79.0993Z" fill="#F3F3F3"/>
</g>
<defs>
<filter id="filter0_f" x="0" y="0" width="141" height="141" filterUnits="userSpaceOnUse" color-interpolation-filters="sRGB">
<feFlood flood-opacity="0" result="BackgroundImageFix"/>
<feBlend mode="normal" in="SourceGraphic" in2="BackgroundImageFix" result="shape"/>
<feGaussianBlur stdDeviation="2" result="effect1_foregroundBlur"/>
</filter>
</defs>
</svg>
