<svg width="67" height="67" viewBox="0 0 67 67" fill="none" xmlns="http://www.w3.org/2000/svg">
<g filter="url(#filter0_f)">
<circle cx="33.5" cy="33.5" r="29.5" fill="#59499E" fill-opacity="0.2"/>
<path d="M51.5087 27.6298C51.0823 26.6164 50.3739 25.8857 49.4596 25.5177L49.4473 25.5131C49.0311 25.3501 48.588 25.2667 48.1411 25.2672H48.0919C45.999 25.2987 43.8622 27.0774 42.7758 29.6936C41.979 31.6068 41.8876 33.6644 42.5315 35.198C42.9571 36.2122 43.6671 36.9428 44.5852 37.3109L44.5952 37.3147C45.0114 37.4776 45.4545 37.561 45.9014 37.5606C48.0143 37.5606 50.1733 35.7819 51.2798 33.1311C52.0665 31.2203 52.1533 29.1642 51.5087 27.6298Z" fill="#F3F3F3"/>
<path d="M43.1462 38.9136C41.9391 38.1883 40.7981 37.5022 40.0528 36.2697C37.9968 32.8583 36.7551 30.7992 33.4997 30.7992C30.2443 30.7992 28.9996 32.8583 26.9389 36.2697C26.1921 37.5037 25.0488 38.1906 23.8379 38.919C22.4495 39.7534 21.015 40.6155 20.3957 42.3119C20.155 42.9235 20.0337 43.5755 20.0385 44.2328C20.0385 46.9949 22.1898 49.2423 24.8329 49.2423C26.1967 49.2423 27.6481 48.7698 29.184 48.2696C30.6607 47.7886 32.1874 47.2915 33.5074 47.2915C34.8274 47.2915 36.3502 47.7886 37.8216 48.2696C39.3544 48.7667 40.7989 49.2393 42.1665 49.2393C44.8058 49.2393 46.9533 46.9919 46.9533 44.2297C46.9554 43.572 46.8316 42.9199 46.5883 42.3089C45.969 40.6108 44.5338 39.748 43.1462 38.9136Z" fill="#F3F3F3"/>
<path d="M25.3553 28.0985C26.2696 29.2456 27.4298 29.8772 28.6222 29.8772C28.785 29.8772 28.9476 29.8651 29.1086 29.8411C31.5957 29.4754 33.1454 26.4404 32.6368 22.9261C32.4239 21.4486 31.8554 20.0725 31.0409 19.0521C30.1282 17.9073 28.9664 17.2765 27.7747 17.2765C27.612 17.2765 27.4494 17.2886 27.2884 17.3126C24.8013 17.6783 23.2516 20.7133 23.7602 24.2276C23.9723 25.7028 24.5408 27.0774 25.3553 28.0985Z" fill="#F3F3F3"/>
<path d="M37.8914 29.8412C38.0524 29.8652 38.215 29.8773 38.3778 29.8773C39.571 29.8773 40.7304 29.2457 41.6447 28.0986C42.4584 27.0775 43.0239 25.7029 43.239 24.2262C43.7477 20.7133 42.1979 17.6784 39.7108 17.3111C39.5498 17.2871 39.3873 17.275 39.2245 17.275C38.0328 17.2766 36.8711 17.9074 35.9583 19.0522C35.1438 20.0725 34.5753 21.4486 34.3632 22.9277C33.8546 26.4405 35.4043 29.4754 37.8914 29.8412Z" fill="#F3F3F3"/>
<path d="M22.4041 37.3147L22.4149 37.3109C23.3315 36.9428 24.0407 36.2129 24.4656 35.1995C25.1095 33.6628 25.0188 31.6075 24.2236 29.6944C23.1225 27.0467 20.9643 25.2672 18.8537 25.2672C18.4067 25.2666 17.9636 25.35 17.5475 25.5131L17.5367 25.5169C16.6224 25.8819 15.9132 26.6149 15.4884 27.6283C14.8445 29.165 14.9351 31.2203 15.7304 33.1334C16.8314 35.7811 18.9897 37.5606 21.1003 37.5606C21.5465 37.5609 21.9887 37.4775 22.4041 37.3147Z" fill="#F3F3F3"/>
</g>
<defs>
<filter id="filter0_f" x="0" y="0" width="67" height="67" filterUnits="userSpaceOnUse" color-interpolation-filters="sRGB">
<feFlood flood-opacity="0" result="BackgroundImageFix"/>
<feBlend mode="normal" in="SourceGraphic" in2="BackgroundImageFix" result="shape"/>
<feGaussianBlur stdDeviation="2" result="effect1_foregroundBlur"/>
</filter>
</defs>
</svg>
