<svg width="83" height="83" viewBox="0 0 83 83" fill="none" xmlns="http://www.w3.org/2000/svg">
<g filter="url(#filter0_f)">
<circle cx="41.5" cy="41.5" r="37.5" fill="#59499E" fill-opacity="0.2"/>
<path d="M64.392 34.0379C63.8499 32.7496 62.9494 31.8208 61.7871 31.353L61.7715 31.3471C61.2425 31.1399 60.6792 31.0339 60.1111 31.0345H60.0486C57.3881 31.0746 54.6719 33.3356 53.2908 36.6613C52.278 39.0933 52.1617 41.7089 52.9802 43.6584C53.5213 44.9476 54.4238 45.8764 55.5909 46.3443L55.6036 46.3492C56.1327 46.5562 56.6959 46.6622 57.264 46.6617C59.9499 46.6617 62.6945 44.4007 64.1009 41.0311C65.101 38.602 65.2114 35.9884 64.392 34.0379Z" fill="#F3F3F3"/>
<path d="M53.7621 48.3817C52.2277 47.4597 50.7773 46.5875 49.8299 45.0209C47.2162 40.6843 45.6379 38.0668 41.4996 38.0668C37.3613 38.0668 35.7791 40.6843 33.1596 45.0209C32.2102 46.5894 30.7569 47.4626 29.2176 48.3885C27.4527 49.4492 25.6292 50.5451 24.842 52.7016C24.536 53.479 24.3818 54.3079 24.3879 55.1434C24.3879 58.6546 27.1226 61.5114 30.4825 61.5114C32.2161 61.5114 34.0611 60.9108 36.0135 60.2749C37.8907 59.6635 39.8314 59.0316 41.5094 59.0316C43.1874 59.0316 45.1232 59.6635 46.9935 60.2749C48.9421 60.9069 50.7782 61.5075 52.5168 61.5075C55.8717 61.5075 58.6016 58.6507 58.6016 55.1395C58.6044 54.3034 58.4469 53.4745 58.1377 52.6977C57.3504 50.5392 55.526 49.4424 53.7621 48.3817Z" fill="#F3F3F3"/>
<path d="M31.1464 34.6337C32.3087 36.092 33.7835 36.8948 35.2993 36.8948C35.5062 36.8948 35.7129 36.8794 35.9176 36.8489C39.0791 36.384 41.0491 32.526 40.4025 28.0586C40.132 26.1804 39.4092 24.4312 38.3739 23.1341C37.2136 21.6788 35.7369 20.877 34.222 20.877C34.0151 20.877 33.8084 20.8923 33.6038 20.9229C30.4422 21.3878 28.4722 25.2457 29.1188 29.7131C29.3883 31.5884 30.1111 33.3357 31.1464 34.6337Z" fill="#F3F3F3"/>
<path d="M47.0823 36.8489C47.2869 36.8794 47.4936 36.8948 47.7005 36.8948C49.2173 36.8948 50.6912 36.092 51.8534 34.6337C52.8878 33.3357 53.6066 31.5884 53.8801 29.7112C54.5267 25.2457 52.5567 21.3878 49.3951 20.9209C49.1904 20.8904 48.9838 20.875 48.7768 20.875C47.262 20.877 45.7852 21.6788 44.6249 23.1341C43.5896 24.4312 42.8668 26.1804 42.5973 28.0606C41.9507 32.526 43.9207 36.384 47.0823 36.8489Z" fill="#F3F3F3"/>
<path d="M27.3951 46.3492L27.4088 46.3443C28.574 45.8765 29.4755 44.9486 30.0156 43.6603C30.834 41.7069 30.7188 39.0943 29.7079 36.6623C28.3083 33.2966 25.5648 31.0346 22.8818 31.0346C22.3136 31.0337 21.7504 31.1398 21.2214 31.3471L21.2077 31.352C20.0454 31.8159 19.144 32.7477 18.6038 34.0359C17.7854 35.9893 17.9006 38.602 18.9115 41.034C20.3111 44.3997 23.0546 46.6617 25.7376 46.6617C26.3048 46.6622 26.867 46.5562 27.3951 46.3492Z" fill="#F3F3F3"/>
</g>
<defs>
<filter id="filter0_f" x="0" y="0" width="83" height="83" filterUnits="userSpaceOnUse" color-interpolation-filters="sRGB">
<feFlood flood-opacity="0" result="BackgroundImageFix"/>
<feBlend mode="normal" in="SourceGraphic" in2="BackgroundImageFix" result="shape"/>
<feGaussianBlur stdDeviation="2" result="effect1_foregroundBlur"/>
</filter>
</defs>
</svg>
