<svg width="92" height="19" viewBox="0 0 92 19" fill="none" xmlns="http://www.w3.org/2000/svg">
<path d="M0.85075 18V0.959999H8.12275C8.93875 0.959999 9.68275 1.128 10.3548 1.464C11.0428 1.8 11.6268 2.24 12.1068 2.784C12.6028 3.328 12.9868 3.944 13.2588 4.632C13.5468 5.32 13.6908 6.016 13.6908 6.72C13.6908 7.472 13.5548 8.192 13.2828 8.88C13.0268 9.568 12.6588 10.184 12.1788 10.728C11.7148 11.272 11.1468 11.704 10.4748 12.024C9.80275 12.344 9.05875 12.504 8.24275 12.504H4.78675V18H0.85075ZM4.78675 9.072H8.00275C8.46675 9.072 8.86675 8.872 9.20275 8.472C9.53875 8.072 9.70675 7.488 9.70675 6.72C9.70675 6.32 9.65075 5.976 9.53875 5.688C9.44275 5.4 9.30675 5.16 9.13075 4.968C8.95475 4.776 8.75475 4.64 8.53075 4.56C8.30675 4.464 8.08275 4.416 7.85875 4.416H4.78675V9.072ZM18.9507 18.24C18.3267 18.24 17.7427 18.144 17.1987 17.952C16.6707 17.744 16.2147 17.464 15.8307 17.112C15.4467 16.744 15.1427 16.32 14.9187 15.84C14.6947 15.344 14.5827 14.808 14.5827 14.232C14.5827 13.608 14.7107 13.04 14.9667 12.528C15.2387 12.016 15.6147 11.576 16.0947 11.208C16.5747 10.84 17.1427 10.552 17.7987 10.344C18.4547 10.136 19.1827 10.032 19.9827 10.032C20.5107 10.032 21.0227 10.08 21.5187 10.176C22.0147 10.256 22.4467 10.384 22.8147 10.56V9.984C22.8147 8.528 21.9747 7.8 20.2947 7.8C19.6067 7.8 18.9507 7.92 18.3267 8.16C17.7027 8.384 17.0467 8.728 16.3587 9.192L15.2307 6.792C16.0627 6.248 16.9267 5.84 17.8227 5.568C18.7187 5.296 19.6707 5.16 20.6787 5.16C22.5827 5.16 24.0547 5.608 25.0947 6.504C26.1347 7.4 26.6547 8.712 26.6547 10.44V13.68C26.6547 14.064 26.7107 14.336 26.8227 14.496C26.9507 14.64 27.1667 14.728 27.4707 14.76V18C27.1347 18.08 26.8307 18.128 26.5587 18.144C26.2867 18.176 26.0387 18.192 25.8147 18.192C25.0947 18.192 24.5507 18.056 24.1827 17.784C23.8147 17.496 23.5827 17.096 23.4867 16.584L23.4147 16.008C22.8547 16.728 22.1827 17.28 21.3987 17.664C20.6307 18.048 19.8147 18.24 18.9507 18.24ZM20.0787 15.48C20.4947 15.48 20.8947 15.408 21.2787 15.264C21.6787 15.12 22.0067 14.928 22.2627 14.688C22.6307 14.4 22.8147 14.096 22.8147 13.776V12.576C22.4787 12.448 22.1107 12.352 21.7107 12.288C21.3267 12.208 20.9667 12.168 20.6307 12.168C19.9267 12.168 19.3427 12.328 18.8787 12.648C18.4307 12.968 18.2067 13.384 18.2067 13.896C18.2067 14.36 18.3827 14.744 18.7347 15.048C19.0867 15.336 19.5347 15.48 20.0787 15.48ZM44.6371 5.4H48.2851L43.0771 18H39.9331L37.9891 12.816L36.0451 18H32.9011L27.6931 5.4H31.3171L34.7491 14.448L35.9251 11.016L33.6931 5.4H36.7651L37.9891 9.192L39.1891 5.4H42.2611L40.0531 11.016L41.2291 14.448L44.6371 5.4ZM54.163 18.24C53.091 18.24 52.035 18.072 50.995 17.736C49.955 17.384 49.075 16.88 48.355 16.224L49.723 13.872C50.491 14.4 51.235 14.808 51.955 15.096C52.691 15.384 53.395 15.528 54.067 15.528C54.563 15.528 54.947 15.44 55.219 15.264C55.491 15.088 55.627 14.832 55.627 14.496C55.627 14.16 55.451 13.896 55.099 13.704C54.763 13.496 54.163 13.28 53.299 13.056C52.451 12.816 51.731 12.584 51.139 12.36C50.563 12.136 50.091 11.888 49.723 11.616C49.355 11.344 49.091 11.032 48.931 10.68C48.771 10.328 48.691 9.912 48.691 9.432C48.691 8.792 48.819 8.208 49.075 7.68C49.331 7.152 49.683 6.704 50.131 6.336C50.579 5.968 51.107 5.68 51.715 5.472C52.339 5.264 53.011 5.16 53.731 5.16C54.675 5.16 55.555 5.288 56.371 5.544C57.203 5.8 58.003 6.264 58.771 6.936L57.283 9.24C56.563 8.744 55.923 8.384 55.363 8.16C54.803 7.936 54.259 7.824 53.731 7.824C53.315 7.824 52.963 7.912 52.675 8.088C52.387 8.248 52.243 8.512 52.243 8.88C52.243 9.232 52.395 9.496 52.699 9.672C53.019 9.848 53.603 10.04 54.451 10.248C55.347 10.488 56.099 10.728 56.707 10.968C57.331 11.208 57.835 11.48 58.219 11.784C58.603 12.072 58.883 12.408 59.059 12.792C59.235 13.176 59.323 13.632 59.323 14.16C59.323 15.408 58.859 16.4 57.931 17.136C57.003 17.872 55.747 18.24 54.163 18.24ZM68.9476 18.144C67.6836 18.144 66.5316 17.896 65.4916 17.4C64.4516 16.904 63.5636 16.256 62.8276 15.456C62.0916 14.64 61.5156 13.712 61.0996 12.672C60.6996 11.632 60.4996 10.56 60.4996 9.456C60.4996 8.336 60.7076 7.256 61.1236 6.216C61.5556 5.176 62.1476 4.264 62.8996 3.48C63.6676 2.68 64.5716 2.048 65.6116 1.584C66.6516 1.104 67.7876 0.863999 69.0196 0.863999C70.2836 0.863999 71.4356 1.112 72.4756 1.608C73.5156 2.104 74.4036 2.76 75.1396 3.576C75.8756 4.392 76.4436 5.32 76.8436 6.36C77.2436 7.4 77.4436 8.456 77.4436 9.528C77.4436 10.648 77.2276 11.728 76.7956 12.768C76.3796 13.808 75.7956 14.728 75.0436 15.528C74.2916 16.312 73.3956 16.944 72.3556 17.424C71.3156 17.904 70.1796 18.144 68.9476 18.144ZM64.5076 9.504C64.5076 10.16 64.6036 10.8 64.7956 11.424C64.9876 12.032 65.2676 12.576 65.6356 13.056C66.0196 13.536 66.4916 13.92 67.0516 14.208C67.6116 14.496 68.2516 14.64 68.9716 14.64C69.7236 14.64 70.3796 14.488 70.9396 14.184C71.4996 13.88 71.9636 13.488 72.3316 13.008C72.6996 12.512 72.9716 11.96 73.1476 11.352C73.3396 10.728 73.4356 10.096 73.4356 9.456C73.4356 8.8 73.3396 8.168 73.1476 7.56C72.9556 6.936 72.6676 6.392 72.2836 5.928C71.8996 5.448 71.4276 5.072 70.8676 4.8C70.3236 4.512 69.6916 4.368 68.9716 4.368C68.2196 4.368 67.5636 4.52 67.0036 4.824C66.4596 5.112 65.9956 5.496 65.6116 5.976C65.2436 6.456 64.9636 7.008 64.7716 7.632C64.5956 8.24 64.5076 8.864 64.5076 9.504ZM91.5499 18H87.7099V10.92C87.7099 10.088 87.5499 9.488 87.2299 9.12C86.9259 8.736 86.5179 8.544 86.0059 8.544C85.7339 8.544 85.4619 8.6 85.1899 8.712C84.9179 8.824 84.6539 8.984 84.3979 9.192C84.1419 9.384 83.9099 9.616 83.7019 9.888C83.5099 10.16 83.3579 10.456 83.2459 10.776V18H79.4059V5.4H82.8619V7.512C83.3259 6.76 83.9819 6.184 84.8299 5.784C85.6779 5.368 86.6539 5.16 87.7579 5.16C88.5739 5.16 89.2299 5.312 89.7259 5.616C90.2219 5.904 90.6059 6.288 90.8779 6.768C91.1499 7.232 91.3259 7.744 91.4059 8.304C91.5019 8.864 91.5499 9.408 91.5499 9.936V18Z" fill="#59499E"/>
</svg>
